<svg width="512" height="746" viewBox="0 0 512 746" fill="none" xmlns="http://www.w3.org/2000/svg">
<path fill-rule="evenodd" clip-rule="evenodd" d="M119.29 614C119.906 618.541 122.861 621.248 128 621.536V626.644C125.022 626.893 122.414 626.058 119.38 624.484V634.036C119.38 646.171 103.953 649.963 97.751 641.265C93.7656 635.668 96.2061 625.847 108.991 625.453V630.839C108.017 630.973 106.976 631.185 106.024 631.463C103.181 632.289 101.569 633.834 102.016 636.561C102.878 641.783 114.051 643.329 113.122 633.124V614.01H119.29V614Z" fill="white"/>
<g clip-path="url(#clip0)">
<path d="M184.4 623.564C185.449 623.564 186.3 622.714 186.3 621.664C186.3 620.615 185.449 619.764 184.4 619.764C183.351 619.764 182.5 620.615 182.5 621.664C182.5 622.714 183.351 623.564 184.4 623.564Z" fill="white"/>
<path d="M176 622.114C171.6 622.114 168.05 625.664 168.05 630.064C168.05 634.464 171.6 638.014 176 638.014C180.4 638.014 183.95 634.464 183.95 630.064C183.95 625.664 180.4 622.114 176 622.114ZM176 635.514C173 635.514 170.55 633.064 170.55 630.064C170.55 627.064 173 624.614 176 624.614C179 624.614 181.45 627.064 181.45 630.064C181.45 633.064 179 635.514 176 635.514Z" fill="white"/>
<path d="M191.9 623.914C191.85 622.364 191.6 621.114 191.15 619.914C190.7 618.714 190.05 617.764 189.15 616.864C188.25 615.964 187.3 615.364 186.1 614.864C184.9 614.414 183.7 614.164 182.1 614.114C180.55 614.064 180 614.064 176 614.064C172 614.064 171.45 614.064 169.85 614.164C168.3 614.214 167.05 614.464 165.85 614.914C164.65 615.364 163.7 616.014 162.8 616.914C161.9 617.814 161.3 618.764 160.8 619.964C160.35 621.164 160.1 622.364 160.05 623.964C160 625.514 160 626.064 160 630.064C160 634.064 160 634.614 160.1 636.214C160.15 637.764 160.4 639.014 160.85 640.214C161.3 641.414 161.95 642.364 162.85 643.264C163.75 644.164 164.7 644.764 165.9 645.264C167.1 645.714 168.3 645.964 169.9 646.014C171.45 646.064 172 646.064 176 646.064C180 646.064 180.55 646.064 182.15 645.964C183.7 645.914 184.95 645.664 186.15 645.214C187.35 644.764 188.3 644.114 189.2 643.214C190.1 642.314 190.7 641.364 191.2 640.164C191.65 638.964 191.9 637.764 191.95 636.164C192 634.614 192 634.064 192 630.064C192 626.064 192 625.514 191.9 623.914ZM189.4 636.064C189.35 637.364 189.15 638.314 188.8 639.264C188.45 640.114 188.05 640.814 187.4 641.464C186.75 642.114 186.1 642.564 185.2 642.864C184.3 643.214 183.3 643.414 182 643.464C180.5 643.564 179.95 643.564 176 643.564C172.05 643.564 171.5 643.564 170 643.464C168.7 643.414 167.75 643.214 166.8 642.864C165.95 642.514 165.25 642.114 164.6 641.464C163.95 640.814 163.5 640.164 163.2 639.264C162.85 638.364 162.65 637.364 162.6 636.064C162.5 634.514 162.5 634.014 162.5 630.064C162.5 626.114 162.5 625.614 162.6 624.064C162.65 622.764 162.85 621.814 163.2 620.864C163.55 620.014 163.95 619.314 164.6 618.664C165.25 618.014 165.9 617.564 166.8 617.264C167.7 616.914 168.7 616.714 170 616.664C171.5 616.564 172.05 616.564 176 616.564C179.95 616.564 180.5 616.564 182 616.664C183.3 616.714 184.25 616.914 185.2 617.264C186.05 617.614 186.75 618.014 187.4 618.664C188.05 619.314 188.5 619.964 188.8 620.864C189.15 621.764 189.35 622.764 189.4 624.064C189.5 625.564 189.5 626.114 189.5 630.064C189.5 634.014 189.5 634.564 189.4 636.064Z" fill="white"/>
</g>
<g clip-path="url(#clip1)">
<path d="M242.55 646.064V631.464H247.55L248.3 625.764H242.55V622.114C242.55 620.464 243 619.364 245.45 619.364H248.55V614.264C247.95 614.214 246.15 614.064 244 614.064C239.55 614.064 236.5 616.714 236.5 621.564V625.764H231.5V631.464H236.5V646.064H242.55Z" fill="white"/>
</g>
<path d="M132.375 314.8C128.4 314.35 126.675 312.175 124.95 307.225L109.35 262.45H107.7L92.475 301.225C89.025 310 87.3 314.35 81.975 314.8V316.075C85.125 316 85.5 315.925 88.125 315.925C90.75 315.925 94.725 316 97.875 316.075V314.8C94.575 314.575 93 313.9 91.8 312.925C92.025 310.525 92.85 306.625 95.775 298.75H113.1L118.05 312.925C116.85 314.35 114.075 314.65 111.75 314.8V316.075C114.9 316 120.525 315.925 123.15 315.925C125.775 315.925 129.225 316 132.375 316.075V314.8ZM112.125 295.9H96.9L104.925 275.125L112.125 295.9ZM136.273 313.3C140.773 315.55 145.798 316.675 149.398 316.675C160.123 316.675 170.248 306.775 170.248 295.975C170.248 288.1 164.923 279.925 155.323 279.925C151.723 279.925 148.123 281.05 144.148 283.525V259.375L143.023 258.625C139.948 261.175 135.148 264.55 130.798 266.95L131.623 268L136.273 265.225V313.3ZM144.148 285.625C145.798 284.65 147.373 284.275 149.248 284.275C158.023 284.275 162.223 292.9 162.223 301.75C162.223 308.275 159.898 313 153.973 313C151.048 313 146.923 311.875 144.148 309.85V285.625ZM211.85 298.3C211.85 286.675 202.7 280 193.475 280C184.25 280 174.95 286.6 174.95 298.45C174.95 310.225 184.025 316.675 193.25 316.675C202.625 316.675 211.85 310 211.85 298.3ZM195.875 314.5C187.85 314.5 183.2 303.625 183.2 295C183.2 288.25 186.05 282.1 191.6 282.1C199.325 282.1 203.6 293.8 203.6 302.8C203.6 309.475 201.275 314.5 195.875 314.5ZM256.9 307.975L252.25 310.75V279.55L251.125 278.8C248.05 281.35 243.25 284.725 238.9 287.125L239.725 288.175L244.375 285.4V309.4C242.65 311.35 240.1 313 236.425 313C232.075 313 228.25 310.675 228.25 303.55V279.55L227.125 278.8C224.05 281.35 219.25 284.725 214.9 287.125L215.725 288.175L220.375 285.4V305.125C220.375 312.85 224.95 316.675 232 316.675C236.65 316.675 240.325 315.025 244.375 311.5V316.6L245.5 317.35C248.575 314.8 253.375 311.425 257.725 309.025L256.9 307.975ZM282.461 310.75C281.936 311.125 281.036 311.5 279.236 311.5C272.486 311.5 272.486 306.1 272.486 299.65V283.375H281.411V280.825H272.486C272.486 275.65 272.636 270.475 273.011 265.3H271.736C270.086 269.05 267.086 273.1 264.611 275.425V280.825H260.036V283.375H264.611V306.925C264.611 313.075 268.286 316.3 273.086 316.3C276.161 316.3 279.461 314.95 282.911 311.95L282.461 310.75Z" fill="white"/>
<path d="M117.6 152.625C117.375 148.8 117.375 145.5 117.375 142.125C112.95 139.65 108.225 138.45 104.1 138.45C95.475 138.45 88.2 143.7 88.2 152.1C88.2 167.475 112.575 167.55 112.575 182.7C112.575 188.175 109.35 190.5 104.325 190.5C99.15 190.5 93.15 188.025 89.4 175.575H88.125C88.275 177.975 88.35 180.15 88.35 182.175C88.35 184.275 88.275 185.625 88.2 187.05C92.7 190.95 98.25 192.75 103.05 192.75C111.9 192.75 119.325 186.75 119.325 178.2C119.325 162.45 94.35 160.2 94.35 147.75C94.35 142.425 98.85 140.7 103.2 140.7C108.675 140.7 113.475 143.475 116.325 152.625H117.6ZM164.988 190.8C162.963 190.575 161.688 190.125 160.338 189.3V167.55C160.338 160.125 155.763 156 148.788 156C144.438 156 140.238 157.575 136.338 161.175V135.375L135.213 134.625C132.138 137.175 127.338 140.55 122.988 142.95L123.813 144L128.463 141.225V189.3C127.038 190.275 125.088 190.65 123.438 190.8V192.075C127.338 191.925 128.763 191.925 131.988 191.925C135.213 191.925 137.163 191.925 141.363 192.075V190.8C139.638 190.65 137.763 190.275 136.338 189.3V163.275C138.063 161.325 140.613 159.675 144.288 159.675C148.713 159.675 152.463 162 152.463 169.05V189.3C151.488 190.05 149.688 190.65 147.138 190.8V192.075C150.288 192 154.638 191.925 157.263 191.925C159.888 191.925 161.838 192 164.988 192.075V190.8ZM205.112 174.3C205.112 162.675 195.962 156 186.737 156C177.512 156 168.212 162.6 168.212 174.45C168.212 186.225 177.287 192.675 186.512 192.675C195.887 192.675 205.112 186 205.112 174.3ZM189.137 190.5C181.112 190.5 176.462 179.625 176.462 171C176.462 164.25 179.312 158.1 184.862 158.1C192.587 158.1 196.862 169.8 196.862 178.8C196.862 185.475 194.537 190.5 189.137 190.5ZM226.761 206.175C225.036 206.025 223.161 205.65 221.736 204.675V190.65C224.511 192 227.061 192.675 229.761 192.675C239.436 192.675 247.461 183.9 247.461 173.625C247.461 164.775 241.536 156 232.686 156C229.011 156 225.636 157.5 221.736 160.725V155.55L220.611 154.8C217.536 157.35 212.736 160.725 208.386 163.125L209.211 164.175L213.861 161.4V204.675C212.436 205.65 210.486 206.025 208.836 206.175V207.45C212.736 207.3 214.161 207.3 217.386 207.3C220.611 207.3 222.561 207.3 226.761 207.45V206.175ZM221.736 163.125C223.761 161.325 225.711 160.5 228.111 160.5C235.611 160.5 239.736 168.675 239.736 177.075C239.736 184.35 236.661 190.8 230.061 190.8C227.136 190.8 224.361 189.525 221.736 186.075V163.125Z" fill="white"/>
<path d="M109.125 438.727C106.725 438.577 102.75 438.202 101.325 437.227V413.452C110.85 413.452 115.5 413.602 117.675 414.277C118.875 416.002 119.925 418.327 120.75 422.002H122.025C121.95 418.852 121.8 416.077 121.8 411.652C121.8 408.577 121.875 405.727 121.95 402.577H120.675C119.325 409.927 117.975 410.527 112.65 410.527H101.325V389.527C107.775 389.602 116.475 389.827 120.075 390.727C121.8 393.202 123.6 397.027 124.725 400.402L126 400.027L125.1 387.352C114.15 387.502 101.85 387.502 95.55 387.502C92.4 387.502 90.075 387.427 87 387.352V388.627C89.775 388.777 92.025 389.152 93.075 390.127V437.227C91.65 438.202 89.7 438.577 87.3 438.727V440.002C91.2 439.852 94.275 439.852 97.5 439.852C100.725 439.852 104.925 439.852 109.125 440.002V438.727ZM173.391 438.727C169.416 438.277 167.691 436.102 165.966 431.152L150.366 386.377H148.716L133.491 425.152C130.041 433.927 128.316 438.277 122.991 438.727V440.002C126.141 439.927 126.516 439.852 129.141 439.852C131.766 439.852 135.741 439.927 138.891 440.002V438.727C135.591 438.502 134.016 437.827 132.816 436.852C133.041 434.452 133.866 430.552 136.791 422.677H154.116L159.066 436.852C157.866 438.277 155.091 438.577 152.766 438.727V440.002C155.916 439.927 161.541 439.852 164.166 439.852C166.791 439.852 170.241 439.927 173.391 440.002V438.727ZM153.141 419.827H137.916L145.941 399.052L153.141 419.827ZM231.39 445.402C227.79 448.627 225.465 449.452 222.84 449.452C215.64 449.452 209.49 443.452 201.465 440.602C220.515 440.602 232.59 429.427 232.59 413.452C232.59 396.052 218.265 386.377 203.865 386.377C188.79 386.377 173.79 397.027 173.79 414.277C173.79 424.402 178.965 435.352 192.015 439.102C188.04 439.252 183.615 440.227 178.965 446.152L179.94 447.052C182.865 443.452 185.865 442.102 188.865 442.102C197.865 442.102 207.54 454.102 217.89 454.102C222.09 454.102 226.89 452.077 232.29 446.377L231.39 445.402ZM204.69 438.352C189.915 438.352 182.34 425.377 182.34 411.502C182.34 398.902 188.64 388.627 201.84 388.627C215.715 388.627 224.04 399.952 224.04 414.952C224.04 427.252 218.415 438.352 204.69 438.352ZM262.249 414.202V406.252C258.649 404.752 254.674 403.927 251.374 403.927C244.174 403.927 238.474 407.977 238.474 414.277C238.474 425.752 257.599 424.552 257.599 433.402C257.599 436.552 255.199 438.652 251.524 438.652C247.174 438.652 242.149 435.652 239.524 428.152H238.399C238.474 429.727 238.549 431.527 238.549 432.652C238.549 433.852 238.474 436.102 238.399 437.002C241.399 438.952 246.049 440.602 250.474 440.602C257.224 440.602 263.524 436.777 263.524 429.652C263.524 417.277 244.399 419.152 244.399 410.602C244.399 407.377 247.174 405.727 250.324 405.727C254.224 405.727 258.799 408.277 261.274 414.202H262.249Z" fill="white"/>
<path d="M133.575 552.641C128.925 559.691 123.225 561.191 117.9 561.191C102.9 561.191 95.625 549.266 95.625 535.616C95.625 519.566 105.675 512.516 115.575 512.516C123.75 512.516 130.8 517.316 133.875 528.041L135.15 527.891L134.7 515.741C127.2 511.466 120 510.341 114.75 510.341C96.45 510.341 87 523.916 87 537.791C87 554.741 101.175 564.641 115.2 564.641C123.45 564.641 130.575 561.191 135.15 554.216L133.575 552.641ZM176.474 546.191C176.474 534.566 167.324 527.891 158.099 527.891C148.874 527.891 139.574 534.491 139.574 546.341C139.574 558.116 148.649 564.566 157.874 564.566C167.249 564.566 176.474 557.891 176.474 546.191ZM160.499 562.391C152.474 562.391 147.824 551.516 147.824 542.891C147.824 536.141 150.674 529.991 156.224 529.991C163.949 529.991 168.224 541.691 168.224 550.691C168.224 557.366 165.899 562.391 160.499 562.391ZM222.424 562.691C220.399 562.466 219.124 562.016 217.774 561.191V539.441C217.774 532.016 213.199 527.891 206.224 527.891C201.874 527.891 197.674 529.466 193.774 533.066V527.441L192.649 526.691C189.574 529.241 184.774 532.616 180.424 535.016L181.249 536.066L185.899 533.291V561.191C184.474 562.166 182.524 562.541 180.874 562.691V563.966C184.774 563.816 186.199 563.816 189.424 563.816C192.649 563.816 194.824 563.816 199.024 563.966V562.691C197.299 562.541 195.199 562.166 193.774 561.191V535.166C195.499 533.216 198.049 531.566 201.724 531.566C206.149 531.566 209.899 533.891 209.899 540.941V561.191C208.924 561.941 207.124 562.541 204.574 562.691V563.966C207.724 563.891 212.074 563.816 214.699 563.816C217.324 563.816 219.274 563.891 222.424 563.966V562.691ZM246.865 558.641C246.34 559.016 245.44 559.391 243.64 559.391C236.89 559.391 236.89 553.991 236.89 547.541V531.266H245.815V528.716H236.89C236.89 523.541 237.04 518.366 237.415 513.191H236.14C234.49 516.941 231.49 520.991 229.015 523.316V528.716H224.44V531.266H229.015V554.816C229.015 560.966 232.69 564.191 237.49 564.191C240.565 564.191 243.865 562.841 247.315 559.841L246.865 558.641ZM284.518 556.091L280.018 558.716V538.691C280.018 532.691 275.218 527.891 266.143 527.891C256.618 527.891 252.493 533.141 252.493 536.591C252.493 538.316 253.543 539.591 255.643 539.591C258.343 539.591 261.793 537.566 261.793 534.341C261.793 533.141 261.268 532.016 259.918 531.041C260.593 530.216 262.468 529.616 264.568 529.616C269.068 529.616 272.143 531.566 272.143 538.916V544.316C269.668 542.441 266.818 541.841 263.818 541.841C254.443 541.841 250.093 547.541 250.093 553.391C250.093 559.991 255.568 564.566 262.693 564.566C266.218 564.566 269.368 563.441 272.143 560.816V564.566L273.268 565.316C276.343 562.766 280.993 559.466 285.343 557.066L284.518 556.091ZM272.143 554.516C272.143 559.241 269.293 562.016 265.768 562.016C261.418 562.016 258.343 557.741 258.343 552.416C258.343 547.991 260.518 543.941 265.393 543.941C268.018 543.941 270.643 545.066 272.143 547.316V554.516ZM319.466 554.441C315.791 559.091 313.016 560.441 309.491 560.441C300.266 560.441 295.991 551.141 295.991 543.116C295.991 536.816 298.616 530.816 303.566 530.816C307.316 530.816 311.666 534.266 314.291 539.816L320.066 534.491C316.991 529.916 312.191 527.891 307.241 527.891C297.266 527.891 287.741 536.216 287.741 547.166C287.741 556.766 295.091 564.566 305.066 564.566C311.066 564.566 316.391 561.791 320.366 555.416L319.466 554.441ZM345.889 558.641C345.364 559.016 344.464 559.391 342.664 559.391C335.914 559.391 335.914 553.991 335.914 547.541V531.266H344.839V528.716H335.914C335.914 523.541 336.064 518.366 336.439 513.191H335.164C333.514 516.941 330.514 520.991 328.039 523.316V528.716H323.464V531.266H328.039V554.816C328.039 560.966 331.714 564.191 336.514 564.191C339.589 564.191 342.889 562.841 346.339 559.841L345.889 558.641Z" fill="white"/>
<path d="M78.9397 89.0634H85.0603V82.9366H78.9397V89.0634ZM115.029 52.9367L108.909 52.9367L108.909 59.0635L115.029 59.0635L115.029 52.9367ZM82.5301 86.5306L112.499 56.5307L111.439 55.4695L81.4699 85.4694L82.5301 86.5306Z" fill="white"/>
<path d="M78.937 52.9393V59.0607H85.063V52.9393H78.937ZM115.063 89.0384L115.063 82.917L108.937 82.917L108.937 89.0384L115.063 89.0384ZM81.4695 56.5301L111.469 86.5079L112.531 85.4476L82.5305 55.4699L81.4695 56.5301Z" fill="white"/>
<path fill-rule="evenodd" clip-rule="evenodd" d="M251.5 8.67972V8.6792L251.499 8.67972L76.5563 8.67971L5.47927e-05 68.5679L0 168.173V685.492L76.5564 745.381H251.5H426.444L503 685.493V585.887V168.173L503 68.5682L426.443 8.67974L251.5 8.67972Z" fill="black"/>
<mask id="path-13-inside-1" fill="white">
<path fill-rule="evenodd" clip-rule="evenodd" d="M262.173 3.72923e-05V-0.000488281L262.172 3.72922e-05L88.393 2.07767e-05L12.3458 59.8884L12.3457 159.494V676.813L88.393 736.701H262.173H435.953L512 676.813V577.207V159.494L512 59.8884L435.953 5.38079e-05L262.173 3.72923e-05Z"/>
</mask>
<path fill-rule="evenodd" clip-rule="evenodd" d="M262.173 3.72923e-05V-0.000488281L262.172 3.72922e-05L88.393 2.07767e-05L12.3458 59.8884L12.3457 159.494V676.813L88.393 736.701H262.173H435.953L512 676.813V577.207V159.494L512 59.8884L435.953 5.38079e-05L262.173 3.72923e-05Z" fill="#F64A47"/>
<path d="M262.173 -0.000488281H267.173V-9.12029L259.484 -4.21595L262.173 -0.000488281ZM262.173 3.72923e-05H257.173V5.00004L262.173 5.00004V3.72923e-05ZM262.172 3.72922e-05V5.00004H263.631L264.861 4.2155L262.172 3.72922e-05ZM88.393 2.07767e-05V-4.99998L86.6606 -4.99998L85.2995 -3.92813L88.393 2.07767e-05ZM12.3458 59.8884L9.25228 55.9602L7.34576 57.4616L7.34576 59.8884L12.3458 59.8884ZM12.3457 159.494H7.3457H12.3457ZM12.3457 676.813H7.3457V679.24L9.25222 680.741L12.3457 676.813ZM88.393 736.701L85.2995 740.629L86.6605 741.701H88.393V736.701ZM435.953 736.701V741.701H437.686L439.047 740.629L435.953 736.701ZM512 676.813L515.094 680.741L517 679.24V676.813H512ZM512 159.494H507H512ZM512 59.8884L517 59.8884V57.4616L515.094 55.9602L512 59.8884ZM435.953 5.38079e-05L439.047 -3.9281L437.686 -4.99995H435.953V5.38079e-05ZM257.173 -0.000488281V3.72923e-05H267.173V-0.000488281H257.173ZM264.861 4.2155L264.862 4.21498L259.484 -4.21595L259.483 -4.21543L264.861 4.2155ZM88.393 5.00002L262.172 5.00004V-4.99996L88.393 -4.99998V5.00002ZM15.4392 63.8165L91.4865 3.92817L85.2995 -3.92813L9.25228 55.9602L15.4392 63.8165ZM17.3457 159.494L17.3458 59.8884L7.34576 59.8884L7.3457 159.494H17.3457ZM17.3457 676.813V159.494H7.3457V676.813H17.3457ZM91.4864 732.773L15.4392 672.885L9.25222 680.741L85.2995 740.629L91.4864 732.773ZM262.173 731.701H88.393V741.701H262.173V731.701ZM435.953 731.701H262.173V741.701H435.953V731.701ZM508.907 672.885L432.86 732.773L439.047 740.629L515.094 680.741L508.907 672.885ZM507 577.207V676.813H517V577.207H507ZM507 159.494V577.207H517V159.494H507ZM507 59.8884L507 159.494H517L517 59.8884L507 59.8884ZM432.86 3.92821L508.907 63.8165L515.094 55.9602L439.047 -3.9281L432.86 3.92821ZM262.173 5.00004L435.953 5.00005V-4.99995L262.173 -4.99996V5.00004Z" fill="black" mask="url(#path-13-inside-1)"/>
<defs>
<clipPath id="clip0">
<rect width="32" height="32" fill="white" transform="translate(160 614.064)"/>
</clipPath>
<clipPath id="clip1">
<rect width="32" height="32" fill="white" transform="translate(224 614.064)"/>
</clipPath>
</defs>
</svg>
