<svg preserveAspectRatio="none" width="556" height="1031" viewBox="0 0 556 1031" fill="none" xmlns="http://www.w3.org/2000/svg">
<path fill-rule="evenodd" clip-rule="evenodd" d="M551.997 731.962V951.817L469.278 1026.97H280.251H91.2228L8.50488 951.818V302.641L8.50494 82.7855L91.2241 7.63257L280.251 7.63259L469.279 7.63261L551.998 82.7855L551.997 302.641V731.962Z" fill="black"/>
<mask id="path-2-inside-1" fill="white">
<path fill-rule="evenodd" clip-rule="evenodd" d="M543.493 721.292V940.225L460.773 1015.06H271.746H82.7175L0 940.227V293.771L5.92036e-05 74.8382L82.7198 0L271.746 2.06382e-05L460.774 4.12765e-05L543.493 74.8375L543.493 293.771V721.292Z"/>
</mask>
<path fill-rule="evenodd" clip-rule="evenodd" d="M543.493 721.292V940.225L460.773 1015.06H271.746H82.7175L0 940.227V293.771L5.92036e-05 74.8382L82.7198 0L271.746 2.06382e-05L460.774 4.12765e-05L543.493 74.8375L543.493 293.771V721.292Z" fill="white"/>
<path d="M543.493 940.225L546.847 943.933L548.493 942.444V940.225H543.493ZM460.773 1015.06V1020.06H462.7L464.128 1018.77L460.773 1015.06ZM82.7175 1015.06L79.363 1018.77L80.7913 1020.06H82.7175V1015.06ZM0 940.227H-5V942.446L-3.35449 943.934L0 940.227ZM0 293.771H-5H0ZM5.92036e-05 74.8382L-3.35442 71.1304L-4.99994 72.6192L-4.99994 74.8382L5.92036e-05 74.8382ZM82.7198 0V-5H80.7936L79.3653 -3.70776L82.7198 0ZM271.746 2.06382e-05V5.00002V2.06382e-05ZM460.774 4.12765e-05L464.128 -3.70771L462.7 -4.99996H460.774V4.12765e-05ZM543.493 74.8375H548.493V72.6184L546.847 71.1297L543.493 74.8375ZM543.493 293.771H538.493H543.493ZM538.493 721.292V940.225H548.493V721.292H538.493ZM540.138 936.517L457.419 1011.36L464.128 1018.77L546.847 943.933L540.138 936.517ZM460.773 1010.06H271.746V1020.06H460.773V1010.06ZM271.746 1010.06H82.7175V1020.06H271.746V1010.06ZM86.0719 1011.36L3.35449 936.519L-3.35449 943.934L79.363 1018.77L86.0719 1011.36ZM5 940.227V293.771H-5V940.227H5ZM5 293.771L5.00006 74.8382L-4.99994 74.8382L-5 293.771H5ZM3.35454 78.5459L86.0742 3.70776L79.3653 -3.70776L-3.35442 71.1304L3.35454 78.5459ZM82.7198 5L271.746 5.00002V-4.99998L82.7198 -5V5ZM271.746 5.00002L460.774 5.00004V-4.99996L271.746 -4.99998V5.00002ZM457.419 3.70779L540.138 78.5452L546.847 71.1297L464.128 -3.70771L457.419 3.70779ZM538.493 74.8374L538.493 293.771H548.493L548.493 74.8375L538.493 74.8374ZM538.493 293.771V721.292H548.493V293.771H538.493Z" fill="black" mask="url(#path-2-inside-1)"/>
</svg>
